<svg width="26" height="25" viewBox="0 0 26 25" fill="none" xmlns="http://www.w3.org/2000/svg">
<rect x="0.953125" width="25" height="25" rx="3.80952" fill="black"/>
<g clip-path="url(#clip0_10_287)">
<path d="M13.4779 11.6572L8.79297 16.6328C8.93827 17.1744 9.43143 17.5707 10.0171 17.5707C10.2504 17.5707 10.4706 17.5091 10.6599 17.3946L10.6731 17.3858L15.9481 14.3432L13.4779 11.6528V11.6572Z" fill="#EA4335"/>
<path d="M18.2268 10.8117H18.2224L15.946 9.48633L13.3789 11.7716L15.9548 14.3474L18.2224 13.0397C18.6187 12.8239 18.8873 12.4056 18.8873 11.9257C18.8873 11.4457 18.6231 11.0274 18.2268 10.8161V10.8117Z" fill="#FBBC04"/>
<path d="M8.79403 7.19202C8.76761 7.29769 8.75 7.40337 8.75 7.51785V16.311C8.75 16.4255 8.76321 16.5312 8.79403 16.6368L13.6419 11.7889L8.79403 7.19202Z" fill="#4285F4"/>
<path d="M13.5132 11.9125L15.9393 9.48633L10.6687 6.43053C10.4794 6.31605 10.2548 6.25 10.0126 6.25C9.43143 6.25 8.93387 6.65069 8.79297 7.18788L13.5176 11.9081L13.5132 11.9125Z" fill="#34A853"/>
</g>
<defs>
<clipPath id="clip0_10_287">
<rect width="10.1317" height="11.325" fill="white" transform="translate(8.75 6.25)"/>
</clipPath>
</defs>
</svg>
